<svg xmlns="http://www.w3.org/2000/svg" viewBox="0 0 341.55 272.03" xmlns:v="https://vecta.io/nano"><path d="M157.6 43.94c-17.5-.35-33.9-8.28-49.13-16.88-20.2-11.4-41.08-25-65.23-24.3C32 3.1 20.63 7 12.66 14.88 3.87 23.62 0 36.43 0 48.83c-.08 28.9 17.66 53.8 20.55 82.17 2.52 24.65-7.54 49.38-2.1 73.84 8 36.16 41.6 55.93 75.6 63 28.13 5.86 66.15 8.8 88.14-13.43 11.16-11.28 20.08-28.66 36-28.82 12.46-.12 21.73 10.9 32.56 17.07 18.62 10.58 43.6 5.83 59.6-8.4 25.27-22.46 22.8-53.82 19.93-84.94a179.62 179.62 0 0 1 3.26-53.65c3.68-17.47 11.58-34.54 6.28-52.64-8.85-30.24-49.3-43.53-77.63-43-21.45.4-42.3 7.2-61 17.44C183.33 27.18 167 39 145.62 38.5" fill="#fbfcf2"/><path d="M138.56 195.9h102.27c1.8.2 7.27-.3 9.13-.3 27.24 0 45.66-21.47 45.66-48.7A49.35 49.35 0 0 0 233 99.41a49.32 49.32 0 0 0-48.78-42 48.29 48.29 0 0 0-4.9.24 49.31 49.31 0 0 0-84.6 34.46A47.81 47.81 0 0 0 95 97h-.24a49.31 49.31 0 1 0 0 98.62z" fill="#3f5a7c" opacity=".15"/><path d="M153.56 178.9h102.27c1.8.2 7.27-.3 9.13-.3 27.24 0 45.66-21.47 45.66-48.7A49.35 49.35 0 0 0 248 82.41a49.32 49.32 0 0 0-48.78-42 48.29 48.29 0 0 0-4.9.24 49.31 49.31 0 0 0-84.59 34.46A47.81 47.81 0 0 0 110 80h-.24a49.31 49.31 0 1 0 0 98.62z" fill="#fff"/><path d="M124.16 113.3a91.17 91.17 0 0 0 27.12 65L112 178a49.31 49.31 0 0 1 0-98.62h.24a47.8 47.8 0 0 1-.24-4.88A49.34 49.34 0 0 1 180.2 29a91.44 91.44 0 0 0-56.04 84.3z" opacity=".15" fill="#3f5a7c"/><g fill="#2e576d"><path d="M226.6 181.9h27.23c12.52.05 25.2-.4 36.2-7.07 27.74-16.8 30.83-58.13 9.14-81-13.35-14.07-33.4-19.2-52-14.33l3.7 2.1A52.46 52.46 0 0 0 215 39.85a51 51 0 0 0-8.8-1.94 53.86 53.86 0 0 0-5.59-.47c-1.58 0-3.85.5-5.3 0-1.26-.42-2.67-2.4-3.77-3.28-1.3-1-2.65-2-4-2.94A52.7 52.7 0 0 0 177.12 26a51.76 51.76 0 0 0-22.27-3A52.27 52.27 0 0 0 107 80l3-3c-34.4-.86-59.77 34.17-50.57 66.64a52.78 52.78 0 0 0 30.94 34.24c10.24 4.1 20.86 3.74 31.64 3.8l31.58.22c3.86 0 3.87-6 0-6-15.07-.1-30.18.15-45.24-.32-33.05-1-55.06-37.23-40.05-67C76 93.2 92.5 82.55 110 83a3 3 0 0 0 3-3c-2.07-24.52 14.82-47.24 39.55-50.74 14.23-2 28.07 2.85 38.58 12.45 2.32 2.12 3.3 1.85 6.47 1.75a46.08 46.08 0 0 1 26.08 6.93 47.14 47.14 0 0 1 21.45 32.84c.26 1.62 2.26 2.47 3.7 2.1 32.4-8.5 62.5 18.46 58.43 51.5-1.75 14.12-9.58 27.32-22.33 34.07-9.74 5.15-20.86 5-31.6 5H226.6c-3.86 0-3.87 6 0 6z"/><path d="M65.45 106.8h24.98v-3.46H67.45l-2 3.46z"/><circle cx="96.85" cy="105.08" r="7.16"/><path d="M59.25 120.4h67.46v3.46H59.25z"/><circle cx="132.24" cy="122.14" r="7.16"/><path d="M60.45 140.93h52.8v-3.46h-53.8l1 3.46z"/><circle cx="118.34" cy="139.2" r="7.16"/><path d="M70.04 158h58.22v-3.46H67.04l3 3.46z"/><circle cx="132.24" cy="156.26" r="7.16"/><path d="M212.95 177.77a18 18 0 0 0-6.18-2.71 16.88 16.88 0 0 0 4.33-3.59 13.72 13.72 0 0 0 2-6c.1-1.44.35-7.5-4.33-11-3.62-2.7-7.76-3.77-13.33-4.1v-12.23H188v12.07h-5.7v-12.07h-7.5v12.07h-14.7v7.8h4.32c1.18 0 3.27.13 4.16 1.14s1 1.53 1 3.48v31.17a3.07 3.07 0 0 1-.77 2.25c-.63.6-1.26.74-2.76.74h-4.47l-1.54 9h14.7v12h7.47v-12h5.8v12h7.47v-12.12c1.93-.1 3.73-.26 4.78-.4a24.7 24.7 0 0 0 11.45-4c4.5-3.17 5.5-8.13 5.62-13.13s-1.82-8.43-4.37-10.36zm-30.68-19s2.37-.2 4.7-.18a23.58 23.58 0 0 1 7.47 1.06 6.5 6.5 0 0 1 5 6 5.91 5.91 0 0 1-3.21 5.74 18.08 18.08 0 0 1-7.71 1.9c-2.72.1-6.2 0-6.2 0zm16.72 36a23.55 23.55 0 0 1-8.45 2c-3.32.25-8.27.14-8.27.14v-16.15s4.75-.25 8.45 0a23.75 23.75 0 0 1 8.2 1.9 6.69 6.69 0 0 1 .07 12.07z"/><circle cx="64.11" cy="50.39" r="4.5"/></g><circle cx="79.11" cy="197.39" r="4.5" fill="none" stroke="#2e576d" stroke-width="2"/><g fill="#2e576d"><path d="M53.1 77.9v8a1.5 1.5 0 0 0 3 0v-8a1.5 1.5 0 0 0-3 0z"/><path d="M58.6 80.4h-8a1.5 1.5 0 0 0 0 3h8a1.5 1.5 0 0 0 0-3z"/></g><circle cx="286.11" cy="40.39" r="4.5" fill="none" stroke="#2e576d" stroke-width="2"/><g fill="#2e576d"><circle cx="290.11" cy="194.39" r="4.5"/><path d="M275.1 206.9v8a1.5 1.5 0 0 0 3 0v-8a1.5 1.5 0 0 0-3 0z"/><path d="M280.6 209.4h-8a1.5 1.5 0 0 0 0 3h8a1.5 1.5 0 0 0 0-3z"/></g></svg>