<?xml version="1.0" ?><!DOCTYPE svg  PUBLIC '-//W3C//DTD SVG 1.1//EN'  'http://www.w3.org/Graphics/SVG/1.1/DTD/svg11.dtd'><svg enable-background="new 0 0 512 512" id="Layer_1" version="1.1" viewBox="0 0 512 512" xml:space="preserve" xmlns="http://www.w3.org/2000/svg" xmlns:xlink="http://www.w3.org/1999/xlink"><g><path d="M258,57.7c-0.6-0.1-1.2-0.2-1.9-0.2l-2,0.2c-77.7,4.9-139,69.4-139,148.2c0,38.4,14.4,73.3,38.3,99.7l14.9,15.6   c22.4,24.7,64.6,75,85.8,128.2c0.8,1.7,1.4,3.4,1.9,5.1l2-5.4c21.2-53,63.3-103.3,85.7-127.9l14.9-15.6   c23.9-26.3,38.4-61.3,38.4-99.7C397,127.1,335.5,62.5,258,57.7z M254.5,297.6c-47.1,0-85.2-38.2-85.2-85.2   c0-47.1,38.2-85.2,85.2-85.2c47.1,0,85.2,38.2,85.2,85.2C339.7,259.4,301.6,297.6,254.5,297.6z"/><path d="M254.4,185.4c-10.2-6.3-31.3-15.9-40.2,3.9c-7.5,16.4-6.4,36.1,38,56.8c0.7,0.4,1.5,0.7,2.3,1c0.8-0.3,1.5-0.7,2.3-1   c44.3-20.8,45.5-40.5,38-56.8C285.8,169.5,264.7,179.1,254.4,185.4z"/></g></svg>