<?xml version="1.0" ?><svg viewBox="0 0 64 64" xmlns="http://www.w3.org/2000/svg" xmlns:xlink="http://www.w3.org/1999/xlink"><defs><linearGradient gradientUnits="userSpaceOnUse" id="gradient_ice" x1="-8.924" x2="43.076" y1="16.141" y2="73.141"><stop offset="0" stop-color="#fff200"/><stop offset="1" stop-color="#cd118c"/></linearGradient><linearGradient id="gradient_ice-2" x1="5.266" x2="57.266" xlink:href="#gradient_ice" y1="3.196" y2="60.196"/></defs><g data-name="chart-financial-business-finance" id="chart-financial-business-finance-5"><polygon points="54 60 54 59 52 59 52 60 44 60 44 59 42 59 42 60 33 60 33 59 31 59 31 60 23 60 23 59 21 59 21 60 12 60 12 59 10 59 10 60 4 60 4 54 5 54 5 52 4 52 4 44 5 44 5 42 4 42 4 33 5 33 5 31 4 31 4 22 5 22 5 20 4 20 4 13 5 13 5 11 4 11 4 2 2 2 2 62 62 62 62 60 54 60" style="fill:url(#gradient_ice)"/><path d="M11,57a3.985,3.985,0,0,0,2.673-6.954L21.1,35.888a3.8,3.8,0,0,0,2.751-.361l4.814,5.28A4.005,4.005,0,1,0,34.618,40l7.546-15.091a3.971,3.971,0,0,0,4.371-5.74l4.254-3.84a4.131,4.131,0,1,0-1.324-1.5l-4.254,3.84A3.988,3.988,0,0,0,40.382,24L32.836,39.091a3.855,3.855,0,0,0-2.683.382l-4.814-5.28a4,4,0,1,0-6.012.761L11.9,49.112A4,4,0,1,0,11,57ZM53,10a2,2,0,1,1-2,2A2,2,0,0,1,53,10ZM43,19a2,2,0,1,1-2,2A2,2,0,0,1,43,19ZM34,43a2,2,0,1,1-2-2A2,2,0,0,1,34,43ZM22,30a2,2,0,1,1-2,2A2,2,0,0,1,22,30ZM11,51a2,2,0,1,1-2,2A2,2,0,0,1,11,51Z" style="fill:url(#gradient_ice-2)"/></g></svg>